{
    "asset" : {
        "generator" : "Khronos glTF Blender I/O v3.4.49",
        "version" : "2.0"
    },
    "extensionsUsed" : [
        "KHR_materials_specular",
        "KHR_materials_ior"
    ],
    "scene" : 0,
    "scenes" : [
        {
            "name" : "Scene",
            "nodes" : [
                3,
                4
            ]
        }
    ],
    "nodes" : [
        {
            "mesh" : 0,
            "name" : "bulb.001",
            "translation" : [
                -0.018920212984085083,
                -0.01971358060836792,
                -0.012151526287198067
            ]
        },
        {
            "mesh" : 1,
            "name" : "inner foil.001",
            "translation" : [
                0.03159216046333313,
                -0.10378031432628632,
                0.06622345000505447
            ]
        },
        {
            "children" : [
                0,
                1
            ],
            "mesh" : 2,
            "name" : "glass.001",
            "translation" : [
                -0.5251115560531616,
                0.9961273670196533,
                -0.680820107460022
            ]
        },
        {
            "children" : [
                2
            ],
            "mesh" : 3,
            "name" : "case.001",
            "rotation" : [
                -0.938228964805603,
                -0.17608867585659027,
                0.054943181574344635,
                0.29274633526802063
            ],
            "translation" : [
                -1.7810838222503662,
                0.4493934214115143,
                0
            ]
        },
        {
            "mesh" : 4,
            "name" : "bottom.001",
            "translation" : [
                -0.28314322233200073,
                0.17533114552497864,
                -7.229215407278389e-05
            ]
        }
    ],
    "materials" : [
        {
            "doubleSided" : true,
            "emissiveFactor" : [
                1,
                0.9012917876243591,
                0.4516708552837372
            ],
            "name" : "Material.005",
            "pbrMetallicRoughness" : {
                "baseColorFactor" : [
                    0,
                    0,
                    0,
                    1
                ]
            }
        },
        {
            "alphaMode" : "BLEND",
            "doubleSided" : true,
            "name" : "Material.004",
            "pbrMetallicRoughness" : {}
        },
        {
            "doubleSided" : true,
            "extensions" : {
                "KHR_materials_specular" : {
                    "specularColorFactor" : [
                        1.1548819440712839,
                        1.1548819440712839,
                        1.1548819440712839
                    ]
                },
                "KHR_materials_ior" : {
                    "ior" : 1.4500000476837158
                }
            },
            "name" : "Material.001",
            "pbrMetallicRoughness" : {
                "baseColorFactor" : [
                    0.37406042218208313,
                    0.3316609561443329,
                    0.32046201825141907,
                    1
                ],
                "roughnessFactor" : 0.27142858505249023
            }
        },
        {
            "doubleSided" : true,
            "extensions" : {
                "KHR_materials_specular" : {
                    "specularColorFactor" : [
                        1.1548819440712839,
                        1.1548819440712839,
                        1.1548819440712839
                    ]
                },
                "KHR_materials_ior" : {
                    "ior" : 1.4500000476837158
                }
            },
            "name" : "Material.003",
            "pbrMetallicRoughness" : {
                "baseColorFactor" : [
                    0.3711197078227997,
                    0.3711197078227997,
                    0.3711197078227997,
                    1
                ],
                "roughnessFactor" : 0.05194804072380066
            }
        }
    ],
    "meshes" : [
        {
            "name" : "Sphere.001",
            "primitives" : [
                {
                    "attributes" : {
                        "POSITION" : 0,
                        "TEXCOORD_0" : 1,
                        "NORMAL" : 2
                    },
                    "indices" : 3,
                    "material" : 0
                }
            ]
        },
        {
            "name" : "Cylinder.011",
            "primitives" : [
                {
                    "attributes" : {
                        "POSITION" : 4,
                        "TEXCOORD_0" : 5,
                        "NORMAL" : 6
                    },
                    "indices" : 7,
                    "material" : 1
                }
            ]
        },
        {
            "name" : "Cylinder.010",
            "primitives" : [
                {
                    "attributes" : {
                        "POSITION" : 8,
                        "TEXCOORD_0" : 9,
                        "NORMAL" : 10
                    },
                    "indices" : 11,
                    "material" : 1
                }
            ]
        },
        {
            "name" : "Cylinder.009",
            "primitives" : [
                {
                    "attributes" : {
                        "POSITION" : 12,
                        "TEXCOORD_0" : 13,
                        "NORMAL" : 14
                    },
                    "indices" : 15,
                    "material" : 2
                },
                {
                    "attributes" : {
                        "POSITION" : 16,
                        "TEXCOORD_0" : 17,
                        "NORMAL" : 18
                    },
                    "indices" : 19,
                    "material" : 3
                }
            ]
        },
        {
            "name" : "Cylinder.012",
            "primitives" : [
                {
                    "attributes" : {
                        "POSITION" : 20,
                        "TEXCOORD_0" : 21,
                        "NORMAL" : 22
                    },
                    "indices" : 23,
                    "material" : 2
                }
            ]
        }
    ],
    "accessors" : [
        {
            "bufferView" : 0,
            "componentType" : 5126,
            "count" : 461,
            "max" : [
                0.3115234375,
                0.27780020236968994,
                0.3719877600669861
            ],
            "min" : [
                -0.2425689697265625,
                -0.42502057552337646,
                -0.2566593289375305
            ],
            "type" : "VEC3"
        },
        {
            "bufferView" : 1,
            "componentType" : 5126,
            "count" : 461,
            "type" : "VEC2"
        },
        {
            "bufferView" : 2,
            "componentType" : 5126,
            "count" : 461,
            "type" : "VEC3"
        },
        {
            "bufferView" : 3,
            "componentType" : 5123,
            "count" : 2490,
            "type" : "SCALAR"
        },
        {
            "bufferView" : 4,
            "componentType" : 5126,
            "count" : 296,
            "max" : [
                0.6226606369018555,
                1.138522744178772,
                0.5727823972702026
            ],
            "min" : [
                -1.1246850490570068,
                -0.5874000787734985,
                -1.1623181104660034
            ],
            "type" : "VEC3"
        },
        {
            "bufferView" : 5,
            "componentType" : 5126,
            "count" : 296,
            "type" : "VEC2"
        },
        {
            "bufferView" : 6,
            "componentType" : 5126,
            "count" : 296,
            "type" : "VEC3"
        },
        {
            "bufferView" : 7,
            "componentType" : 5123,
            "count" : 1434,
            "type" : "SCALAR"
        },
        {
            "bufferView" : 8,
            "componentType" : 5126,
            "count" : 426,
            "max" : [
                0.7915812730789185,
                1.1549500226974487,
                0.9324997067451477
            ],
            "min" : [
                -1.180410385131836,
                -1.0520991086959839,
                -1.2016634941101074
            ],
            "type" : "VEC3"
        },
        {
            "bufferView" : 9,
            "componentType" : 5126,
            "count" : 426,
            "type" : "VEC2"
        },
        {
            "bufferView" : 10,
            "componentType" : 5126,
            "count" : 426,
            "type" : "VEC3"
        },
        {
            "bufferView" : 11,
            "componentType" : 5123,
            "count" : 2100,
            "type" : "SCALAR"
        },
        {
            "bufferView" : 12,
            "componentType" : 5126,
            "count" : 896,
            "max" : [
                0.676530122756958,
                1.4690568447113037,
                0.72697514295578
            ],
            "min" : [
                -1.1878137588500977,
                -0.7508432865142822,
                -1.3450440168380737
            ],
            "type" : "VEC3"
        },
        {
            "bufferView" : 13,
            "componentType" : 5126,
            "count" : 896,
            "type" : "VEC2"
        },
        {
            "bufferView" : 14,
            "componentType" : 5126,
            "count" : 896,
            "type" : "VEC3"
        },
        {
            "bufferView" : 15,
            "componentType" : 5123,
            "count" : 4752,
            "type" : "SCALAR"
        },
        {
            "bufferView" : 16,
            "componentType" : 5126,
            "count" : 393,
            "max" : [
                0.672745943069458,
                -0.08605802059173584,
                0.7438068985939026
            ],
            "min" : [
                -0.27112889289855957,
                -0.8834260702133179,
                -0.12628233432769775
            ],
            "type" : "VEC3"
        },
        {
            "bufferView" : 17,
            "componentType" : 5126,
            "count" : 393,
            "type" : "VEC2"
        },
        {
            "bufferView" : 18,
            "componentType" : 5126,
            "count" : 393,
            "type" : "VEC3"
        },
        {
            "bufferView" : 19,
            "componentType" : 5123,
            "count" : 2208,
            "type" : "SCALAR"
        },
        {
            "bufferView" : 20,
            "componentType" : 5126,
            "count" : 581,
            "max" : [
                0.6593573093414307,
                0.8632447719573975,
                1.0637214183807373
            ],
            "min" : [
                -0.9157703518867493,
                -1.2139071226119995,
                -1.0714995861053467
            ],
            "type" : "VEC3"
        },
        {
            "bufferView" : 21,
            "componentType" : 5126,
            "count" : 581,
            "type" : "VEC2"
        },
        {
            "bufferView" : 22,
            "componentType" : 5126,
            "count" : 581,
            "type" : "VEC3"
        },
        {
            "bufferView" : 23,
            "componentType" : 5123,
            "count" : 2676,
            "type" : "SCALAR"
        }
    ],
    "bufferViews" : [
        {
            "buffer" : 0,
            "byteLength" : 5532,
            "byteOffset" : 0,
            "target" : 34962
        },
        {
            "buffer" : 0,
            "byteLength" : 3688,
            "byteOffset" : 5532,
            "target" : 34962
        },
        {
            "buffer" : 0,
            "byteLength" : 5532,
            "byteOffset" : 9220,
            "target" : 34962
        },
        {
            "buffer" : 0,
            "byteLength" : 4980,
            "byteOffset" : 14752,
            "target" : 34963
        },
        {
            "buffer" : 0,
            "byteLength" : 3552,
            "byteOffset" : 19732,
            "target" : 34962
        },
        {
            "buffer" : 0,
            "byteLength" : 2368,
            "byteOffset" : 23284,
            "target" : 34962
        },
        {
            "buffer" : 0,
            "byteLength" : 3552,
            "byteOffset" : 25652,
            "target" : 34962
        },
        {
            "buffer" : 0,
            "byteLength" : 2868,
            "byteOffset" : 29204,
            "target" : 34963
        },
        {
            "buffer" : 0,
            "byteLength" : 5112,
            "byteOffset" : 32072,
            "target" : 34962
        },
        {
            "buffer" : 0,
            "byteLength" : 3408,
            "byteOffset" : 37184,
            "target" : 34962
        },
        {
            "buffer" : 0,
            "byteLength" : 5112,
            "byteOffset" : 40592,
            "target" : 34962
        },
        {
            "buffer" : 0,
            "byteLength" : 4200,
            "byteOffset" : 45704,
            "target" : 34963
        },
        {
            "buffer" : 0,
            "byteLength" : 10752,
            "byteOffset" : 49904,
            "target" : 34962
        },
        {
            "buffer" : 0,
            "byteLength" : 7168,
            "byteOffset" : 60656,
            "target" : 34962
        },
        {
            "buffer" : 0,
            "byteLength" : 10752,
            "byteOffset" : 67824,
            "target" : 34962
        },
        {
            "buffer" : 0,
            "byteLength" : 9504,
            "byteOffset" : 78576,
            "target" : 34963
        },
        {
            "buffer" : 0,
            "byteLength" : 4716,
            "byteOffset" : 88080,
            "target" : 34962
        },
        {
            "buffer" : 0,
            "byteLength" : 3144,
            "byteOffset" : 92796,
            "target" : 34962
        },
        {
            "buffer" : 0,
            "byteLength" : 4716,
            "byteOffset" : 95940,
            "target" : 34962
        },
        {
            "buffer" : 0,
            "byteLength" : 4416,
            "byteOffset" : 100656,
            "target" : 34963
        },
        {
            "buffer" : 0,
            "byteLength" : 6972,
            "byteOffset" : 105072,
            "target" : 34962
        },
        {
            "buffer" : 0,
            "byteLength" : 4648,
            "byteOffset" : 112044,
            "target" : 34962
        },
        {
            "buffer" : 0,
            "byteLength" : 6972,
            "byteOffset" : 116692,
            "target" : 34962
        },
        {
            "buffer" : 0,
            "byteLength" : 5352,
            "byteOffset" : 123664,
            "target" : 34963
        }
    ],
    "buffers" : [
        {
            "byteLength" : 129016,
            "uri" : "data:application/octet-stream;base64,"
        }
    ]
}
